<?xml version="1.0" encoding="UTF-8" standalone="no"?>
<!-- Created with Inkscape (http://www.inkscape.org/) -->

<svg
   xmlns:osb="http://www.openswatchbook.org/uri/2009/osb"
   xmlns:dc="http://purl.org/dc/elements/1.1/"
   xmlns:cc="http://creativecommons.org/ns#"
   xmlns:rdf="http://www.w3.org/1999/02/22-rdf-syntax-ns#"
   xmlns:svg="http://www.w3.org/2000/svg"
   xmlns="http://www.w3.org/2000/svg"
   xmlns:sodipodi="http://sodipodi.sourceforge.net/DTD/sodipodi-0.dtd"
   xmlns:inkscape="http://www.inkscape.org/namespaces/inkscape"
   id="svg2"
   version="1.1"
   inkscape:version="0.48.4 r9939"
   width="600"
   height="186"
   sodipodi:docname="raspberry.svg">
  <metadata
     id="metadata8">
    <rdf:RDF>
      <cc:Work
         rdf:about="">
        <dc:format>image/svg+xml</dc:format>
        <dc:type
           rdf:resource="http://purl.org/dc/dcmitype/StillImage" />
        <dc:title></dc:title>
      </cc:Work>
    </rdf:RDF>
  </metadata>
  <defs
     id="defs6">
    <linearGradient
       id="linearGradient3779"
       osb:paint="solid">
      <stop
         style="stop-color:#000000;stop-opacity:1;"
         offset="0"
         id="stop3781" />
    </linearGradient>
  </defs>
  <sodipodi:namedview
     pagecolor="#ffffff"
     bordercolor="#666666"
     borderopacity="1"
     objecttolerance="10"
     gridtolerance="10"
     guidetolerance="10"
     inkscape:pageopacity="0"
     inkscape:pageshadow="2"
     inkscape:window-width="1920"
     inkscape:window-height="1023"
     id="namedview4"
     showgrid="false"
     inkscape:zoom="2.9133333"
     inkscape:cx="225.85812"
     inkscape:cy="93"
     inkscape:window-x="0"
     inkscape:window-y="0"
     inkscape:window-maximized="1"
     inkscape:current-layer="svg2" />
  <g
     id="g3776"
     transform="matrix(0.12735985,0,0,0.12735985,-18.143102,82.199129)"
     style="fill:#ffffff;fill-opacity:1;stroke:#c5089d;stroke-width:15.70353603000000042;stroke-miterlimit:4;stroke-opacity:1;stroke-dasharray:none">
    <path
       inkscape:connector-curvature="0"
       id="path2987"
       d="M 555.26103,803.96117 C 524.42691,795.56025 497.81959,779.5171 470.84352,753.0607 l -7.86075,-7.70935 -11.57265,-5.27686 c -30.262,-13.79885 -59.93993,-31.88108 -86.52877,-52.72048 -7.60811,-5.96293 -11.00538,-8.15618 -14.68312,-9.47941 -17.52296,-6.30451 -38.11673,-20.65956 -56.30437,-39.24749 -29.28365,-29.92828 -46.95644,-64.22654 -54.31792,-105.41693 -1.134,-6.34487 -3.02522,-13.21648 -5.92119,-21.51364 -8.60368,-24.65041 -15.07116,-46.41096 -18.09392,-60.87903 -1.11164,-5.3204 -1.52225,-6.10026 -6.83133,-12.97323 -19.98091,-25.86678 -32.42924,-54.90684 -37.04678,-86.4244 -1.68226,-11.48217 -1.68062,-36.58473 0.007,-48.04714 3.38047,-23.01357 9.14342,-41.66037 19.19621,-62.11187 11.65187,-23.70473 28.131,-45.09884 45.45559,-59.01294 5.13771,-4.12631 7.29682,-6.46845 10.658,-11.56145 l 4.21513,-6.38686 0.45989,-12.27225 c 0.89011,-23.76066 4.23469,-44.19921 10.43865,-63.79109 11.92345,-37.65366 33.70482,-66.33772 69.63298,-91.70024 4.88732,-3.45007 10.50065,-7.22163 12.47396,-8.38121 1.97339,-1.1596 3.58669,-2.26971 3.58519,-2.46691 0,-0.19721 -2.53882,-1.14922 -5.63855,-2.11558 -8.40142,-2.61922 -17.0202,-7.38646 -21.10854,-11.6757 -3.14581,-3.30032 -8.10949,-12.25508 -8.10949,-14.63 0,-0.46891 -2.78912,-1.83396 -6.19815,-3.03345 -15.89791,-5.59379 -25.05738,-14.93626 -28.15137,-28.71379 -0.8251,-3.67414 -1.03864,-3.92776 -6.54806,-7.776 -14.24127,-9.94729 -22.67188,-23.08688 -22.67188,-35.33544 0,-4.14584 -0.0157,-4.17838 -3.27349,-6.68713 -7.27174,-5.60017 -13.43217,-14.41369 -14.84005,-21.23126 -0.57015,-2.76059 -0.59222,-12.42068 -0.0328,-14.27028 0.2251,-0.74413 -1.1884,-3.3483 -3.75866,-6.92465 -9.13104,-12.70552 -12.77774,-25.58046 -9.95149,-35.13399 0.81806,-2.76514 0.75798,-3.0106 -1.66675,-6.81266 -5.82467,-9.1333 -7.89376,-15.80686 -7.30133,-23.54986 0.29508,-3.8564 1.01683,-6.07885 3.87815,-11.94208 l 3.51559,-7.20388 -1.3839,-3.28236 c -5.39062,-12.78497 -4.16442,-27.22732 3.02385,-35.61514 5.88347,-6.8653 14.66767,-10.16948 27.08388,-10.18763 l 7.25512,-0.0106 1.87783,-2.84277 c 2.07551,-3.14214 7.41706,-7.68754 11.63718,-9.90283 7.22443,-3.79229 20.29834,-6.25136 30.76455,-5.78648 l 5.52692,0.24548 3.47615,-3.64616 c 6.01907,-6.31348 12.57315,-8.46127 24.72341,-8.10187 6.93802,0.20522 7.43461,0.12022 10.54268,-1.80465 1.79396,-1.11101 5.48509,-2.85427 8.20252,-3.87394 6.8305,-2.56299 19.38095,-2.68499 29.6609,-0.28833 l 6.948,1.61984 4.38725,-2.52998 c 3.81848,-2.20203 4.95582,-2.51906 8.77347,-2.44565 4.369,0.084 4.37413,0.0865 1.31029,0.64838 -4.06674,0.74571 -6.50562,1.77659 -10.41705,4.40308 l -3.23986,2.17555 -6.67151,-1.56557 c -8.4676,-1.98707 -19.23127,-2.63667 -24.91896,-1.50388 -2.37019,0.47205 -7.07781,2.26752 -10.46135,3.98992 l -6.15189,3.13166 -10.25313,0.23812 c -9.56604,0.22217 -10.5107,0.37062 -14.09773,2.21533 -2.11454,1.08746 -5.24168,3.54414 -6.94917,5.45929 l -3.10465,3.48212 -11.16465,0.37686 c -17.58488,0.59356 -27.47315,4.21545 -35.09793,12.85569 -2.06266,2.33732 -3.75026,4.49023 -3.75026,4.78425 0,0.29402 -3.61423,0.54823 -8.03162,0.5649 -4.4174,0.0167 -9.53413,0.41423 -11.37046,0.88346 -8.58701,2.19414 -15.50808,7.7259 -18.75252,14.98821 -1.64706,3.68677 -1.83004,4.90098 -1.80722,11.99051 0.0226,7.02254 0.23576,8.39994 1.94223,12.54963 2.90259,7.05849 2.90478,7.31778 0.10068,12.16059 -7.15074,12.3496 -6.85545,21.93811 1.05826,34.3613 3.23959,5.08564 3.44663,5.67068 2.95051,8.3379 -0.29344,1.57767 -0.53966,5.77283 -0.54703,9.32258 -0.0109,5.34958 0.29187,7.22465 1.77065,10.95675 2.27277,5.73582 5.49793,11.3417 9.63029,16.73895 l 3.26009,4.25804 -0.81622,4.64745 c -1.00262,5.70895 -0.12064,11.63076 2.60177,17.46857 1.93497,4.14925 9.24498,12.42091 13.07384,14.79377 1.91802,1.18866 2.20259,1.74941 2.20259,4.3396 0,5.16829 1.28471,10.52563 3.85559,16.07849 1.95951,4.23244 3.82045,6.75358 8.73383,11.83251 3.43405,3.54975 8.4477,7.90626 11.14147,9.68114 2.69377,1.77487 4.91576,3.65421 4.93784,4.17629 0.11914,2.8206 3.88813,12.37459 6.31156,15.99912 4.68801,7.01157 13.5407,12.93414 24.05516,16.09328 4.46408,1.34126 4.48097,1.3562 5.5853,4.94836 3.56481,11.59544 11.93821,18.57165 28.8537,24.03914 4.28288,1.38433 7.00632,2.6346 7.00632,3.21646 0,0.52351 -1.46108,1.83491 -3.24683,2.9142 -1.78576,1.07929 -7.64467,5.00025 -13.01978,8.71324 -24.68915,17.05457 -44.26943,37.49013 -56.83883,59.32166 -15.3983,26.74501 -24.6074,64.16656 -24.6329,100.09683 l -0.007,8.24689 -4.61507,7.07418 c -3.8262,5.86485 -5.66678,7.90798 -10.76704,11.9519 -19.66176,15.58953 -38.43867,41.254 -50.06533,68.42964 -10.07234,23.54253 -14.99365,45.49284 -15.69913,70.02154 -0.82517,28.69141 4.27775,53.44675 16.2256,78.71325 6.94193,14.68035 13.1945,24.54205 26.15979,41.25995 0.67568,0.87116 2.28953,6.19651 3.58641,11.83401 3.89148,16.91604 6.90508,27.0291 15.40828,51.70683 4.68241,13.58916 6.44068,19.77132 7.76143,27.28855 5.38584,30.65579 17.48919,58.60754 36.62483,84.58239 6.27787,8.52156 22.17153,25.29941 30.74588,32.45635 13.90238,11.60418 31.81318,22.57814 42.88376,26.2749 3.18361,1.06306 6.56263,3.23178 13.32909,8.55476 28.57763,22.48125 60.22305,41.64246 91.43129,55.36135 8.47292,3.72458 8.60997,3.82254 16.40502,11.72859 25.98296,26.35293 56.73049,44.20581 88.86055,51.59516 4.3234,0.99429 8.47592,1.9558 9.22782,2.13666 0.7519,0.18085 -0.78607,0.35153 -3.41771,0.37936 -3.1877,0.0337 78.94918,4.75701 73.93991,3.39226 z m 82.3669,0.27409 c 33.06658,-7.68358 65.14025,-26.21501 92.63805,-53.52407 6.59386,-6.5486 7.05273,-6.85962 13.99458,-9.48608 29.0924,-11.00724 55.30674,-26.64609 88.05917,-52.5341 11.84319,-9.36101 14.64579,-11.24712 18.98054,-12.77372 17.465,-6.15083 38.99413,-21.5163 57.71493,-41.19154 16.7917,-17.64764 26.26977,-31.44563 36.23583,-52.75123 7.68938,-16.43851 13.12688,-34.01422 16.01438,-51.76334 0.60432,-3.71491 2.74066,-11.37211 4.90182,-17.56948 8.94156,-25.64147 15.70487,-48.40556 19.03721,-64.07623 0.92066,-4.32941 1.65957,-5.79786 5.21495,-10.36291 19.59831,-25.16423 31.95201,-54.06257 36.62611,-85.67765 1.4272,-9.65466 1.6025,-34.15509 0.3131,-43.77376 -5.7181,-42.6527 -24.2379,-81.5806 -52.21612,-109.75619 -6.26206,-6.30625 -15.75381,-14.26825 -20.76356,-17.41716 -0.41498,-0.26086 -2.76712,-3.70132 -5.22692,-7.64549 l -4.47242,-7.17122 -0.39918,-12.19106 C 943.21003,121.88541 937.37709,95.42704 925.78332,70.66681 911.459,40.07509 890.63084,17.31589 856.31105,-5.24641 c -5.04755,-3.3183 -9.27007,-6.51773 -9.38347,-7.10984 -0.14853,-0.77603 1.18718,-1.5111 4.7848,-2.63317 18.25353,-5.69303 27.28723,-12.79157 30.62346,-24.06335 0.467,-1.57767 1.0973,-3.15181 1.40072,-3.49807 0.30349,-0.34627 3.63925,-1.68061 7.41296,-2.96518 16.52478,-5.62516 23.76048,-13.61849 27.02228,-29.85165 0.27649,-1.376 2.1682,-3.22263 6.92565,-6.76057 8.45276,-6.28607 15.29461,-13.96042 18.39585,-20.63428 2.39827,-5.16113 4.19961,-13.73076 3.42462,-16.29253 -0.27732,-0.91648 0.19542,-1.84101 1.51377,-2.9608 13.12354,-11.14675 18.62995,-22.90966 16.56053,-35.37695 l -0.76906,-4.63296 3.2536,-3.77157 c 9.90898,-11.48652 13.64002,-23.34009 11.00613,-34.96634 l -1.05601,-4.66129 2.71544,-4.08865 c 1.49348,-2.24876 3.7059,-6.28256 4.91652,-8.96403 1.95288,-4.32546 2.20115,-5.57704 2.20115,-11.09634 0,-6.11232 -0.0643,-6.3527 -3.67938,-13.76038 -2.23026,-4.57014 -3.5266,-8.05105 -3.29159,-8.83856 0.21319,-0.71456 1.23413,-3.55811 2.26867,-6.31903 1.61255,-4.30334 1.88726,-6.09462 1.92459,-12.54963 0.052,-8.9653 -1.06701,-12.19953 -6.21977,-17.97883 -5.98325,-6.71077 -13.31254,-9.45694 -25.52142,-9.56243 l -7.86075,-0.0679 -3.41771,-3.87859 c -8.7095,-9.88392 -20.8026,-14.39034 -38.64983,-14.40259 l -7.89041,-0.005 -4.10207,-4.18512 c -5.53287,-5.64489 -8.41448,-6.66712 -20.04736,-7.11155 l -9.17082,-0.35038 -4.33475,-3.1135 c -10.49285,-7.53659 -22.70988,-8.20141 -37.87975,-2.06129 l -3.13862,1.27036 -3.29187,-2.37617 c -1.81057,-1.30688 -4.70455,-2.95598 -6.43104,-3.66465 l -3.1391,-1.28849 2.77436,-0.0336 c 1.99369,-0.0241 3.88532,0.66829 6.72244,2.46063 3.88156,2.45218 3.99024,2.47555 6.45346,1.38785 4.81767,-2.12739 13.42656,-3.87197 19.13168,-3.87699 8.06395,-0.007 17.42267,3.46858 22.92055,8.51243 1.0098,0.92639 2.47326,1.1157 7.1772,0.92837 10.8431,-0.43179 19.23243,2.39643 24.48641,8.25492 l 2.85618,3.1848 9.78936,0.25903 c 11.1494,0.29501 18.52968,1.87685 25.37365,5.43837 5.1507,2.68032 10.70558,7.08536 13.11623,10.40115 l 1.78671,2.45757 7.31329,0.0106 c 15.95478,0.0231 25.39279,5.02779 30.69086,16.27435 2.42343,5.14439 2.56855,5.83759 2.58243,12.33699 0.0123,5.91383 -0.30664,7.89829 -2.26028,14.05216 l -2.27489,7.16584 2.76637,5.01986 c 6.79878,12.33685 6.12338,23.16632 -2.25481,36.15244 -2.77915,4.30778 -2.92146,4.76204 -2.2466,7.17121 0.39632,1.41467 0.71676,5.63781 0.71205,9.38477 -0.007,5.65591 -0.31771,7.64807 -1.82964,11.73275 -2.07345,5.60165 -6.76304,13.31898 -10.21254,16.80619 l -2.33847,2.364 0.32598,7.10204 c 0.19912,4.33754 0.007,8.44191 -0.49877,10.54418 -1.83278,7.6489 -6.99367,15.7193 -13.61549,21.29139 l -4.00365,3.36899 -0.36767,5.52612 c -0.20226,3.03937 -1.00345,7.27203 -1.78043,9.40592 -3.13903,8.62057 -10.58753,17.48844 -20.80588,24.77045 l -5.79678,4.13102 -0.78512,4.1867 c -1.22005,6.50616 -4.96744,13.63626 -9.40117,17.88751 -5.0587,4.8505 -13.41118,9.22605 -21.91171,11.47875 -2.31332,0.61304 -2.98818,1.16082 -3.34383,2.71441 -0.6482,2.83082 -2.82071,7.19815 -5.50251,11.06142 -3.969,5.7175 -14.23902,11.83295 -25.01357,14.89474 -1.79538,0.51022 -3.38859,1.13849 -3.54041,1.39616 -0.15181,0.25768 3.41239,2.87573 7.92048,5.81789 58.34065,38.07579 84.62088,86.48545 87.7725,161.68186 l 0.45079,10.75682 4.16612,6.70151 c 3.20815,5.16051 5.05843,7.33726 8.04667,9.46622 36.48641,25.9946 63.50104,74.24179 70.04934,125.1052 1.4638,11.36978 1.4611,32.99399 -0.01,44.46153 -3.928,30.7155 -16.7334,61.41095 -36.28028,86.96694 l -4.5373,5.93217 -2.70238,11.27523 c -4.24576,17.71484 -12.89961,45.61897 -20.40129,65.78349 -0.44019,1.18325 -1.40885,5.70112 -2.15247,10.03971 -9.24717,53.94825 -38.71073,100.48176 -82.96486,131.03122 -9.01087,6.22037 -22.45328,13.41447 -28.44679,15.2242 -2.34127,0.70693 -5.40832,2.44624 -7.86074,4.45777 -35.96439,29.49865 -63.92171,46.88927 -95.37991,59.33018 l -9.3333,3.69103 -8.4775,8.05542 c -17.50017,16.62884 -32.84228,27.8307 -50.77974,37.0764 -17.82639,9.1884 -33.58258,14.63558 -43.74673,15.12401 l -6.15189,0.2956 7.86075,-1.82658 z m -56.0505,-34.04117 C 550.99956,765.79664 518.0176,748.89895 494.33804,725.49878 482.8252,714.12172 476.755,704.05706 476.78111,696.38846 c 0.0308,-8.93032 6.21457,-16.73232 19.83908,-25.02941 17.8892,-10.8943 50.241,-20.29332 79.4889,-23.09361 12.36754,-1.18418 55.33285,-0.50126 65.62009,1.04291 29.69023,4.45669 51.82901,11.70299 66.0197,21.60902 10.13445,7.07448 13.68013,12.81417 13.10697,21.21747 -1.57605,23.10975 -40.39789,58.49733 -78.78489,71.81542 -16.16995,5.61012 -20.8136,6.38933 -39.64548,6.6531 -9.02276,0.12628 -18.40438,-0.0581 -20.84805,-0.40927 z m 29.99864,-1.42735 c 16.40209,-1.52303 30.59824,-5.8941 47.71046,-14.69024 27.09556,-13.92779 50.85175,-36.42116 58.10157,-55.01319 3.27841,-8.40738 2.11427,-14.22676 -4.16363,-20.81309 -12.57958,-13.19747 -40.35944,-22.96739 -79.35602,-27.9085 -11.76104,-1.49025 -50.75284,-1.26307 -62.88593,0.36631 -38.30403,5.14406 -71.5808,17.5111 -85.29745,31.70014 -7.69115,7.95596 -8.86261,14.06849 -4.39114,22.91124 9.13766,18.07046 38.05057,41.16256 66.47896,53.0951 21.83011,9.1631 41.76946,12.39824 63.80318,10.35223 z M 777.87289,657.60307 c -14.14524,-1.86866 -27.06002,-7.22908 -32.2125,-13.37022 -14.65741,-17.46965 -14.2339,-55.57046 1.10242,-99.19016 3.92216,-11.15526 13.35827,-30.52865 19.90927,-40.87593 3.37109,-5.32462 9.14669,-13.39225 12.83454,-17.92804 9.08497,-11.17382 31.13304,-34.20396 39.99996,-41.78179 31.93341,-27.29085 58.87654,-35.49795 80.05126,-24.38428 6.45647,3.38869 9.81013,7.04608 13.65526,14.89189 8.64668,17.64298 12.96223,39.93068 12.98301,67.05085 0.0205,26.61152 -4.41548,48.4889 -13.85568,68.33523 -4.22355,8.87918 -6.83563,13.15609 -14.38516,23.55414 -28.78938,39.65173 -66.96407,62.67735 -106.18849,64.04913 -4.88733,0.1709 -11.13955,0.0129 -13.89389,-0.35082 z m 25.08465,-2.51486 c 33.87855,-5.16866 66.96756,-26.89493 91.68241,-60.19877 16.9103,-22.78711 24.38608,-40.88597 28.43887,-68.85048 1.70188,-11.74321 1.72245,-36.72328 0.0397,-48.40569 -3.86469,-26.83311 -11.74873,-47.07185 -20.8309,-53.47374 -6.54218,-4.61152 -11.70518,-6.22813 -20.97696,-6.56819 -7.15724,-0.26247 -9.06385,-0.0675 -14.96138,1.52804 -25.06702,6.78289 -58.01084,33.93368 -89.27143,73.57344 -11.46164,14.5339 -24.15387,39.4553 -31.22655,61.31388 -6.10534,18.86905 -8.64279,33.58976 -8.71483,50.55714 -0.0622,14.64799 0.95511,20.6427 5.05063,29.76055 3.62209,8.06381 6.36816,11.08052 13.33892,14.65337 12.74506,6.53254 30.05127,8.762 47.4313,6.11045 z m -413.79737,-0.9583 c -33.84548,-6.4779 -65.60848,-28.80834 -89.88402,-63.19138 -6.92914,-9.81416 -15.46051,-29.14905 -20.7259,-46.97153 -13.92548,-47.13553 -7.11527,-94.93003 15.0499,-105.62001 6.88656,-3.32136 11.95427,-4.53523 20.71209,-4.96119 24.62975,-1.19803 52.90374,12.98348 83.56146,41.91223 8.09929,7.64251 20.63321,21.76765 26.18166,29.50553 16.755,23.36612 29.34271,56.89513 32.39432,86.286 2.30819,22.23077 -1.52628,40.79431 -10.61774,51.40298 -3.71833,4.3388 -11.43321,8.60983 -19.76047,10.93962 -7.84119,2.19375 -27.18463,2.5594 -36.9113,0.69775 z m 25.97462,-0.8249 c 18.3944,-2.17812 28.45649,-8.23807 34.41439,-20.72624 4.304,-9.02153 5.2397,-14.53334 5.18186,-30.52485 -0.0431,-11.91075 -0.28202,-14.79845 -1.89949,-22.94789 -5.55542,-27.99041 -16.72848,-54.18391 -32.01215,-75.04727 -6.37314,-8.6999 -26.27128,-29.60241 -35.34879,-37.13319 -19.70299,-16.34557 -38.40717,-26.61346 -55.09512,-30.24489 -17.25521,-3.755 -35.80471,0.28334 -43.71842,9.51771 -13.27714,15.49284 -17.08475,49.03003 -9.5532,84.1433 3.61177,16.8383 13.28985,42.61846 20.19109,53.78419 4.61098,7.46014 13.29512,18.515 20.74177,26.40405 28.31822,30.00042 65.74395,46.48776 97.09806,42.77508 z m 167.46796,-41.93195 c -41.69857,-6.92984 -73.63936,-28.86379 -92.25099,-63.34937 -17.51517,-32.45398 -18.31157,-75.92108 -2.01475,-109.96406 25.82732,-53.95149 86.75887,-81.65389 144.88542,-65.87186 36.87665,10.01247 67.15335,34.50182 82.74978,66.9322 6.10581,12.69614 9.23008,23.08937 10.85856,36.12227 5.60019,44.8193 -13.9951,88.61628 -51.26622,114.58375 -15.45736,10.76945 -30.3201,16.95613 -50.25652,20.91951 -8.16867,1.62392 -34.39115,2.0093 -42.70528,0.62756 z m 30.41764,-1.09692 c 9.68963,-0.89934 22.15888,-3.50944 30.75943,-6.43875 8.99644,-3.06419 25.72369,-11.92859 33.46207,-17.73297 7.38685,-5.54063 18.03966,-15.97237 23.48749,-23.00017 11.56431,-14.9182 19.85989,-33.34343 23.4798,-52.15087 1.77242,-9.20906 1.76333,-32.60134 -0.0157,-41.20845 -7.23045,-34.97388 -27.99179,-63.75856 -59.21062,-82.09277 -31.04624,-18.23284 -66.75581,-22.72415 -100.16095,-12.59755 -13.23228,4.01138 -26.95912,11.05086 -38.84114,19.91893 -7.12464,5.31745 -20.32774,18.98415 -25.54639,26.44343 -29.24004,41.79426 -29.37421,97.6558 -0.33254,138.39627 18.8206,26.40211 49.11014,44.56559 82.34768,49.38084 13.03127,1.88782 19.44344,2.11479 30.57131,1.08206 z M 246.64151,427.35301 c -3.44806,-1.07985 -15.15618,-13.81298 -20.40901,-22.1957 -10.7051,-17.08391 -17.83287,-37.83435 -20.67586,-60.19153 -1.20276,-9.45851 -1.04145,-30.83215 0.3041,-40.2937 5.81504,-40.88948 26.67731,-74.62725 59.52577,-96.26327 6.74978,-4.44581 10.14794,-5.32878 15.41054,-4.00428 9.90488,2.49286 16.63968,15.99248 19.50086,39.08856 1.43318,11.56847 1.44768,39.20887 0.0294,55.21836 -5.52282,62.32548 -23.70964,117.4648 -41.96692,127.23651 -3.46809,1.85619 -8.39254,2.44667 -11.71846,1.40505 z m 9.25702,-2.39476 c 3.35695,-1.47152 9.41327,-7.70597 13.02935,-13.41253 13.26039,-20.92633 25.00427,-65.12541 29.29875,-110.26875 5.33389,-56.0688 -2.70833,-93.73678 -20.34065,-95.27082 -4.0882,-0.35568 -6.52086,0.66427 -13.81412,5.79188 -21.82423,15.3439 -38.87103,37.08043 -48.06925,61.29354 -6.04997,15.92579 -8.82632,29.85586 -9.46529,47.49208 -1.26278,34.85074 9.41887,69.58798 28.68104,93.27213 4.25847,5.23606 10.06906,10.8152 12.1067,11.62432 1.95158,0.775 6.20582,0.51605 8.57347,-0.52185 z m 675.31096,-3.28842 c -16.23427,-9.17436 -31.69629,-49.4903 -39.59367,-103.23754 -3.76769,-25.64185 -5.14045,-58.76034 -3.18052,-76.732 2.42774,-22.26098 7.94919,-35.81082 16.45799,-40.38846 3.24547,-1.74605 4.38452,-1.98819 8.33403,-1.77169 4.42,0.2423 4.83628,0.4362 12.30377,5.7313 32.80807,23.26367 52.70094,57.63177 57.34616,99.07466 1.04705,9.34138 0.44075,33.85077 -1.04917,42.41249 -4.9848,28.64526 -15.4048,51.63009 -31.18219,68.78292 l -6.61807,7.19495 -5.04208,0.23924 c -4.1478,0.19685 -5.52699,-0.0344 -7.77625,-1.30587 z m 12.70322,-2.1665 c 3.49182,-2.60853 11.62564,-12.41603 16.02239,-19.31918 4.83674,-7.59397 11.59493,-21.8953 14.25098,-30.15721 5.23709,-16.29075 7.41738,-30.46676 7.49395,-48.72617 0.0602,-14.43616 -0.94917,-23.28857 -4.13052,-36.21463 -7.79997,-31.69143 -26.26478,-58.79138 -53.02329,-77.8199 -7.96424,-5.66353 -9.2104,-6.16797 -14.16478,-5.73374 -9.36789,0.82103 -16.42704,13.931 -19.59574,36.39243 -1.63811,11.61159 -1.63237,42.66035 0.0109,58.27659 7.05723,67.07004 25.22013,118.55561 44.03115,124.81357 2.62734,0.87402 6.84992,0.17297 9.10506,-1.51176 z M 422.31199,393.37895 c -19.81919,-3.56122 -37.29088,-12.45891 -51.46318,-26.20823 -8.87847,-8.61356 -15.75593,-18.65394 -21.59564,-31.52752 -6.29276,-13.87217 -9.5087,-28.56268 -10.13824,-46.31174 -1.11117,-31.32683 7.54235,-61.93853 25.62786,-90.65846 7.57119,-12.02303 11.4045,-17.07006 19.8373,-26.11833 19.72711,-21.16673 43.81222,-35.18767 69.90906,-40.69691 6.65852,-1.40566 9.8763,-1.6461 21.82271,-1.6306 11.8421,0.0153 15.08243,0.26245 20.91921,1.59522 20.31427,4.63861 38.07291,14.6866 52.22334,29.54842 13.95541,14.65699 22.78849,32.38135 27.34567,54.87168 2.09602,10.34372 2.61626,31.97988 1.05102,43.70856 -3.85019,28.85139 -15.34546,56.28805 -32.9149,78.56065 -5.24852,6.65352 -16.8941,18.7496 -22.82698,23.71004 -19.73798,16.50284 -43.10004,27.41298 -66.68595,31.14252 -8.233,1.30186 -25.90421,1.30974 -33.11128,0.0144 z m 25.63285,-1.11104 c 32.27197,-3.19256 63.54821,-19.67869 87.71787,-46.23731 16.08991,-17.68019 26.85202,-36.30572 34.06694,-58.95808 14.25884,-44.76803 7.70558,-89.22746 -17.65918,-119.80535 -13.49655,-16.2704 -34.61864,-28.99551 -55.59411,-33.49287 -33.47704,-7.17787 -70.66942,4.11933 -100.48077,30.52113 -15.75566,13.95367 -30.02154,33.49025 -40.02709,54.81553 -10.60702,22.60716 -15.00247,41.79735 -14.99406,65.46199 0.007,16.93948 2.48051,31.12286 7.88426,45.19186 13.25716,34.51625 44.23854,58.72811 79.94695,62.47837 8.03989,0.84441 10.8174,0.84798 19.13919,0.0243 z m 302.46761,-3.29588 c -44.80565,-4.49298 -88.9206,-37.18395 -110.72418,-82.05114 -22.96027,-47.24747 -22.76785,-100.02063 0.50329,-138.00843 29.30635,-47.83988 93.06752,-58.71052 147.44197,-25.13738 20.63903,12.74343 39.64513,32.96953 51.63953,54.95434 20.62119,37.79694 25.95843,83.00382 14.10812,119.49595 -5.48858,16.90172 -12.53809,28.91237 -23.92359,40.75997 -14.51721,15.10646 -30.79189,24.28385 -50.26629,28.34548 -6.46302,1.3479 -22.55294,2.26546 -28.77885,1.64121 z m 29.55905,-3.81481 c 28.20461,-6.32903 53.08338,-26.50281 66.00056,-53.51872 12.90159,-26.98341 15.2309,-62.0522 6.31887,-95.13538 -5.36041,-19.89876 -15.35482,-40.40036 -27.18197,-55.75816 -4.94911,-6.42659 -16.56798,-18.54721 -22.74727,-23.72964 -16.22826,-13.6103 -37.02613,-23.91067 -57.37767,-28.41694 -7.62697,-1.68876 -10.10864,-1.9021 -22.25506,-1.91317 -11.66722,-0.0106 -14.72265,0.22567 -20.84802,1.61225 -19.23181,4.35348 -34.11643,12.37517 -46.7444,25.19173 -25.94243,26.32985 -36.16673,67.49965 -27.68731,111.48777 4.09647,21.25081 13.96976,44.48723 26.06533,61.34366 23.35932,32.55357 56.47238,54.33896 91.04553,59.89966 8.85981,1.42507 26.7119,0.88909 35.41141,-1.06306 z M 883.70327,166.48144 c -6.31299,-2.46622 -7.66483,-3.19652 -18.89004,-10.20498 C 836.46104,138.5747 793.42472,101.77863 759.24553,66.01603 733.4584,39.0342 722.30243,23.79589 722.11282,15.29512 c -0.0947,-4.24539 1.10036,-5.17434 8.22131,-6.39091 8.65598,-1.47882 35.16725,-2.09452 44.76952,-1.03972 50.95551,5.59745 90.31007,33.03078 110.66829,77.14475 9.02611,19.55866 13.61815,39.78458 14.74723,64.95545 0.74103,16.52018 -0.096,18.6141 -7.41718,18.55434 -2.93117,-0.0239 -5.88128,-0.66349 -9.39872,-2.03759 z m 13.4606,-1.22738 1.77824,-1.86559 -0.41109,-12.65612 c -0.46624,-14.35303 -1.58828,-23.05796 -4.63551,-35.96257 C 883.57148,71.04899 856.4911,37.86666 817.05786,20.61851 797.02691,11.85694 769.69854,7.47759 746.42575,9.29975 c -18.31218,1.43375 -22.67148,2.47065 -22.67148,5.39265 0,8.40419 19.51338,33.25411 48.39969,61.63607 47.2075,46.3833 95.8711,83.86206 116.41627,89.65918 5.25597,1.48305 6.58928,1.36924 8.59364,-0.73359 z m -605.268,1.11434 c -3.20937,-1.35128 -3.77172,-4.72199 -3.34424,-20.04527 0.56044,-20.08779 2.78668,-33.83467 8.12958,-50.1985 21.66373,-66.35048 84.26666,-101.61483 159.69342,-89.95565 4.01048,0.61992 7.94604,1.57138 8.74572,2.11436 4.48254,3.04349 1.42724,12.48693 -8.40963,25.99305 -25.94953,35.629 -94.04166,97.78239 -133.17065,121.55601 -7.37864,4.48307 -17.74367,9.49833 -21.66339,10.48214 -3.79099,0.95151 -7.79751,0.97312 -9.98081,0.0539 z m 14.21386,-3.77939 c 35.89317,-14.4046 129.65055,-97.70467 153.4582,-136.34203 6.39216,-10.37376 7.25164,-15.35191 2.90253,-16.81078 -9.80679,-3.28955 -41.35973,-4.38771 -56.87109,-1.97933 -61.3684,9.52844 -102.63927,51.3747 -113.26371,114.84269 -1.35998,8.12429 -2.54306,35.06119 -1.69553,38.60398 1.15922,4.84574 6.22079,5.39721 15.4696,1.68547 z M 581.9192,118.58109 C 556.43782,116.24817 531.08482,107.73314 513.61573,95.64073 505.267,89.86162 494.83867,79.0978 491.15703,72.45961 c -5.23962,-9.44724 -7.06482,-21.12868 -4.45628,-28.51954 4.94981,-14.02425 21.84698,-30.95702 44.02596,-44.11873 12.94815,-7.68381 29.18488,-14.0698 44.35707,-17.4458 11.27018,-2.50774 29.96576,-3.13748 41.35432,-1.39298 46.96575,7.19424 91.1753,38.81439 97.40542,69.66764 1.25232,6.20181 1.26264,10.11613 0.0424,16.15511 -5.54917,27.46586 -39.11822,46.69614 -89.92889,51.51656 -7.18527,0.68166 -35.51557,0.85636 -42.03783,0.25922 z m 33.83537,-1.68681 c 27.20965,-1.7788 49.03427,-7.04955 65.96186,-15.93008 19.74188,-10.35692 31.13572,-25.87475 31.09115,-42.34447 -0.0911,-33.59816 -51.04129,-71.15401 -103.88844,-76.57703 -33.93372,-3.48219 -77.83548,13.63487 -104.79051,40.85731 -7.52075,7.59536 -11.48981,12.92022 -14.3464,19.24718 -1.95002,4.31886 -2.18727,5.52731 -2.15016,10.95014 0.0691,10.08727 4.42287,19.24834 13.97087,29.39704 20.10244,21.367 56.03628,34.33853 97.06306,35.03815 3.19557,0.0546 10.88542,-0.23271 17.08857,-0.63824 z M 385.63787,-16.84943 c -0.22331,-0.61056 -0.29112,-1.17688 -0.15072,-1.25847 0.14047,-0.0816 2.06491,-1.09782 4.27659,-2.25828 4.12066,-2.16207 7.9407,-6.53816 7.9407,-9.09652 0,-3.16748 -5.68987,-4.99882 -24.00211,-7.72527 -18.96866,-2.82418 -32.04838,-6.77258 -32.04838,-9.67451 0,-0.54708 1.41172,-1.36925 3.24683,-1.89096 1.78576,-0.50768 4.3234,-1.48339 5.63923,-2.16825 2.36266,-1.2297 5.26819,-4.02376 4.72368,-4.54236 -0.15434,-0.14699 -5.35596,-1.94903 -11.55912,-4.00455 -6.20314,-2.05551 -14.42192,-5.01963 -18.26405,-6.5869 -9.47041,-3.8632 -20.64538,-11.65737 -19.07542,-13.30444 0.26112,-0.27398 3.46338,-0.51426 7.11602,-0.53395 5.40949,-0.0292 7.26469,-0.33733 10.00235,-1.66152 l 3.36111,-1.62575 -12.60287,-6.62067 c -14.52256,-7.62915 -22.82029,-13.19394 -29.43446,-19.73989 -6.60458,-6.53653 -6.41839,-7.05601 2.67594,-7.4648 5.24428,-0.23574 8.21338,-0.73047 10.37023,-1.72796 l 3.02208,-1.39765 -4.33878,-2.71158 c -7.99813,-4.99852 -17.36008,-12.8917 -25.80032,-21.75265 -4.60537,-4.83491 -8.3734,-9.2918 -8.3734,-9.90419 0,-0.95922 0.87562,-1.05001 6.32276,-0.65552 5.70423,0.4131 12.13289,-0.41655 12.13289,-1.56579 0,-0.20046 -5.77156,-6.40009 -12.82565,-13.77696 -12.24355,-12.80366 -15.90754,-17.59759 -18.09338,-23.67298 -0.44218,-1.22892 -0.62113,-2.42616 -0.39775,-2.66052 0.22339,-0.23436 2.20886,0.0573 4.41213,0.648 6.3337,1.69829 11.87983,2.11943 15.27608,1.15998 3.56987,-1.00848 4.11452,-0.44468 -6.92961,-7.17357 -5.12008,-3.1195 -9.26433,-6.32168 -12.52941,-9.68115 -5.09438,-5.24158 -10.26107,-13.41628 -11.03047,-17.45234 l -0.44949,-2.35802 7.78384,0.57926 c 9.20275,0.68483 12.6938,0.69366 13.32286,0.0337 0.64958,-0.68141 -2.79028,-10.55681 -6.04484,-17.35409 -1.50509,-3.14343 -5.00606,-9.46622 -7.77987,-14.05064 -2.7739,-4.5844 -5.04346,-8.67032 -5.04346,-9.07978 0,-0.48709 6.91274,-0.90405 19.99362,-1.20599 10.99649,-0.25383 22.10578,-0.65138 24.68718,-0.88344 l 4.69354,-0.42194 -5.88975,-6.20781 c -3.2393,-3.41432 -5.88974,-6.73702 -5.88974,-7.38382 0,-1.99613 8.26041,-2.9925 20.84799,-2.51472 11.954,0.45374 18.69755,1.74962 28.30625,5.4395 4.33147,1.66337 5.97491,2.01126 6.66454,1.41084 2.05063,-1.78545 0.42611,-5.26449 -6.00035,-12.85066 -4.03358,-4.76142 -4.82888,-6.41584 -3.08427,-6.41584 4.45574,0 26.38337,5.06834 37.57577,8.68523 3.70022,1.19577 7.16066,1.99983 7.68986,1.7868 1.59211,-0.64095 1.10644,-4.34822 -0.91772,-7.00574 -1.03386,-1.35735 -3.87911,-4.44291 -6.32278,-6.85679 -5.75618,-5.68605 -5.23395,-6.35337 3.50576,-4.48026 15.31867,3.28314 28.07214,8.60507 36.65436,15.29559 2.3507,1.8326 4.41903,3.33199 4.59634,3.33199 0.7856,0 2.40778,-4.44932 2.40546,-6.59776 0,-2.53018 -1.14152,-4.82966 -5.05692,-10.21107 -2.40415,-3.30436 -3.11114,-5.42193 -1.81016,-5.42193 1.38931,0 13.33695,5.81853 19.30503,9.40158 7.00535,4.2058 12.97931,8.77501 19.86559,15.19438 4.47776,4.17411 4.658,4.26591 5.9564,3.03314 0.73644,-0.69919 1.83298,-2.62835 2.43675,-4.28702 1.0409,-2.85942 1.02279,-3.23596 -0.34894,-7.26268 -2.28735,-6.71422 -2.29568,-6.75682 -1.32177,-6.75682 2.40703,0 16.14623,11.2393 25.64789,20.98119 l 7.59546,7.7875 1.74535,-2.17611 c 2.31831,-2.89052 2.75086,-5.37154 1.89786,-10.88665 -0.39051,-2.5248 -0.71225,-4.99393 -0.71512,-5.48695 -0.028,-4.8531 14.65741,9.11049 28.65923,27.25062 3.88157,5.02881 7.28301,9.14329 7.55883,9.14329 0.65893,0 3.78477,-7.4181 4.75937,-11.29466 0.42208,-1.67906 1.17965,-3.04776 1.68678,-3.04776 2.19731,0 16.78465,18.33178 25.22367,31.69833 12.52852,19.84389 20.6918,39.32673 24.12735,57.58329 1.77379,9.42574 1.61173,24.64409 -0.34361,32.27046 -3.25408,12.69183 -10.06011,23.32546 -19.9168,31.11756 -5.55618,4.39239 -14.0615,9.39981 -15.96585,9.39981 -0.53575,0 -3.38866,-2.04474 -6.33986,-4.54389 -44.10114,-37.34599 -99.32517,-70.51028 -159.84645,-95.99434 -12.25729,-5.16126 -31.98959,-12.79105 -32.28338,-12.48284 -0.11511,0.12074 1.7187,1.28268 4.07508,2.58209 58.92021,32.49094 107.98874,65.0263 142.01816,94.16665 16.78241,14.37118 35.54421,33.78807 35.54421,36.78516 0,2.47997 -3.21353,11.39254 -6.56645,18.21173 -10.06229,20.46456 -28.70011,35.61343 -55.10926,44.79289 -19.15642,6.65854 -37.20544,9.58229 -66.33782,10.74604 -8.72364,0.34849 -10.15778,0.25205 -10.50844,-0.70663 z m 21.98964,-1.78093 c 45.22926,-3.03322 78.31662,-15.79555 97.03135,-37.42659 7.52853,-8.70166 14.43218,-21.31873 16.84625,-30.78788 l 0.84424,-3.31178 -4.96082,-5.73597 c -5.98762,-6.92318 -19.28574,-19.72064 -30.54642,-29.39635 -34.5485,-29.68567 -86.14319,-63.68465 -146.42202,-96.48669 -8.86029,-4.82152 -12.90276,-7.37587 -12.30377,-7.77444 0.71348,-0.47475 0.69816,-0.59583 -0.0762,-0.60461 -0.53261,-0.005 -0.78279,-0.20565 -0.55599,-0.44358 1.20017,-1.25917 48.97119,17.4448 72.61273,28.43039 50.62851,23.52563 98.43406,53.72294 136.94211,86.50208 2.00818,1.70943 4.02826,3.10805 4.48896,3.10805 0.46078,0 3.57808,-1.69419 6.92737,-3.76488 4.16127,-2.57272 8.17168,-5.92214 12.66488,-10.57755 5.67546,-5.88036 7.01055,-7.74495 9.75607,-13.6253 4.67809,-10.01952 5.5583,-14.21636 5.56493,-26.5335 0.007,-7.31977 -0.3601,-12.2029 -1.22942,-16.4938 -4.1636,-20.55029 -15.56838,-45.19989 -30.55833,-66.0471 -4.06065,-5.64734 -15.59256,-20.00747 -16.06701,-20.00747 -0.11846,0 -0.73904,1.69419 -1.37905,3.76488 -1.70223,5.50748 -4.45745,10.57755 -5.74818,10.57755 -0.61403,0 -4.64078,-4.5925 -8.94833,-10.20556 -7.98876,-10.40993 -17.27852,-20.75945 -22.18636,-24.71735 l -2.73416,-2.20497 0,6.60566 c 0,6.16009 -0.13166,6.78694 -1.952,9.29299 -1.07364,1.47802 -2.3857,2.86187 -2.91566,3.07522 -0.60315,0.24283 -3.17245,-2.07389 -6.86926,-6.19386 -5.56663,-6.20392 -17.43177,-16.75799 -22.05122,-19.61459 l -2.09212,-1.29373 0.68068,1.87826 c 0.92756,2.55951 0.8158,8.26415 -0.19796,10.10526 -1.40263,2.54731 -4.45786,6.02205 -5.29499,6.02205 -0.43645,0 -3.39708,-2.55555 -6.57917,-5.67898 -8.12705,-7.97724 -21.03917,-16.74955 -31.21582,-21.20752 -2.86644,-1.25566 -2.89098,-1.4256 0.56365,3.89984 1.69135,2.60724 2.05063,3.88349 2.05063,7.28431 0,4.34092 -1.69731,7.92861 -3.97323,8.39847 -0.60186,0.12425 -2.72242,-1.06053 -4.71242,-2.63284 -9.64109,-7.61757 -22.62027,-13.15224 -38.13703,-16.26261 l -2.3924,-0.47956 3.88149,3.66995 c 2.13485,2.01847 4.5187,4.75159 5.29747,6.0736 1.61541,2.7422 1.84638,6.72114 0.50206,8.64993 -1.12969,1.62082 -2.16082,1.46374 -13.4405,-2.04755 -8.63718,-2.68873 -20.3419,-5.55433 -27.46892,-6.7251 l -3.88669,-0.63848 3.71778,4.36626 c 4.65466,5.46647 6.29961,9.52648 5.09555,12.57622 -0.46488,1.17733 -1.4159,2.33065 -2.11345,2.56293 -0.69762,0.23227 -4.1383,-0.70541 -7.64597,-2.08373 -12.49995,-4.91177 -28.55636,-6.91704 -41.77143,-5.2168 l -4.69361,0.60387 6.05591,6.37313 c 3.33077,3.50523 6.16001,6.70057 6.28715,7.10078 0.60535,1.90519 -4.21116,2.40291 -26.36724,2.72464 -12.50029,0.18152 -22.7278,0.42286 -22.7278,0.53633 0,0.11347 2.26471,4.02907 5.03266,8.70133 2.76786,4.67224 5.96247,10.43123 7.09906,12.79773 2.41482,5.02806 6.32394,16.35867 6.32394,18.33008 0,2.01627 -2.45584,2.37565 -12.45135,1.82204 l -8.84846,-0.49009 2.24148,4.51142 c 1.48623,2.99128 4.32812,6.68614 8.43416,10.9655 4.99765,5.20869 7.84023,7.44205 14.73116,11.57401 4.69621,2.81595 8.63916,5.64571 8.76206,6.28835 0.57664,3.01462 -11.75802,4.44502 -19.55451,2.26765 l -3.60951,-1.00805 1.51226,2.63009 c 4.14616,7.21076 6.48771,10.0555 18.18593,22.09418 7.42676,7.64291 12.44779,13.33991 12.17102,13.8097 -1.28376,2.17919 -4.92253,3.25782 -11.05992,3.27845 l -6.23248,0.021 3.03807,3.58561 c 6.77248,7.99316 20.63965,19.94448 29.40745,25.34458 4.23714,2.60967 5.1645,4.19189 3.37178,5.75279 -1.8615,1.62083 -6.82264,2.93157 -12.92524,3.41488 l -6.27828,0.49723 4.07747,3.8691 c 6.51491,6.18201 15.07936,11.82704 29.36711,19.35672 7.32929,3.86251 13.32696,7.39426 13.32826,7.84832 0,1.01074 -3.64403,3.3303 -7.13782,4.54001 -1.42218,0.49241 -4.87653,0.91079 -7.67632,0.92972 l -5.09061,0.0344 1.92191,1.66202 c 4.16633,3.60296 16.07173,9.03047 30.92696,14.09916 8.43389,2.87767 15.46098,5.6309 15.6158,6.11827 0.50411,1.58651 -5.43833,7.05744 -8.7382,8.04491 -1.68993,0.50571 -3.33049,1.15177 -3.64574,1.4357 -0.73023,0.65777 8.57231,3.8648 15.26924,5.26403 2.81962,0.58911 8.9715,1.57638 13.67086,2.19393 14.77218,1.94124 22.13584,4.07757 24.54287,7.12036 1.87188,2.36632 -0.92216,8.426 -5.48358,11.8926 l -2.85933,2.17305 3.01928,0 c 1.66059,0 7.93552,-0.3297 13.94425,-0.73271 z m 381.74687,-0.0634 c -23.54757,-2.17136 -44.71552,-7.88108 -61.05404,-16.46834 -22.94943,-12.06183 -37.92722,-29.54927 -44.66961,-52.15439 l -1.77578,-5.95351 5.38912,-5.879 c 35.9783,-39.24903 86.99657,-75.89335 172.85698,-124.15603 4.30126,-2.41778 3.54923,-2.1573 -12.30377,4.2615 -53.82058,21.79167 -100.69007,46.75039 -140.80977,74.98326 -11.64408,8.19412 -27.59489,20.40921 -35.6613,27.30932 -2.6961,2.30625 -5.31065,4.18864 -5.81012,4.18309 -0.49954,-0.005 -3.21517,-1.32759 -6.03479,-2.93789 -31.20516,-17.82137 -41.20771,-49.12943 -28.61344,-89.56069 5.62084,-18.0446 15.60508,-36.6725 29.01953,-54.14267 6.47124,-8.42781 13.56066,-15.72762 14.79269,-15.23165 0.52681,0.21209 1.32798,2.11244 1.78034,4.22302 0.45245,2.11058 1.51666,5.41754 2.365,7.34881 l 1.54235,3.51141 8.10626,-9.96549 c 9.60139,-11.80348 25.42865,-28.2521 27.18487,-28.2521 1.42861,0 1.51083,1.06289 0.59571,7.70106 -0.69981,5.07573 -0.0328,8.64483 1.9714,10.54761 1.27762,1.213 1.59758,0.95822 10.07843,-8.02461 10.65207,-11.28254 25.50572,-22.29382 25.50572,-18.90783 0,0.35134 -0.60842,2.04554 -1.35205,3.76488 -1.94761,4.50302 -1.79765,8.87402 0.4197,12.23083 0.991,1.50027 2.05295,2.72776 2.35986,2.72776 0.30691,0 3.87822,-2.80209 7.93627,-6.22685 9.60057,-8.10239 17.45864,-13.43431 24.74404,-16.78963 10.41521,-4.79676 11.78995,-4.43199 7.17939,1.90492 -3.9154,5.38141 -5.05418,7.68088 -5.05692,10.21107 0,2.25387 1.63346,6.59776 2.48468,6.59776 0.22078,0 3.10417,-1.59844 6.40753,-3.55208 13.86737,-8.20132 42.37096,-18.47221 42.37096,-15.26781 0,0.40556 -1.92246,2.60445 -4.27214,4.88643 -2.34968,2.28198 -5.11802,5.26546 -6.15188,6.62995 -2.02363,2.67073 -2.50833,6.37834 -0.91766,7.01872 0.52913,0.21303 3.98957,-0.59104 7.68985,-1.78681 11.19234,-3.61688 33.12004,-8.68523 37.57571,-8.68523 1.8479,0 0.85792,1.60101 -4.13727,6.69074 -2.80485,2.85795 -5.28502,6.05195 -5.54573,7.14194 -0.52359,2.1886 0.76852,6.24672 1.98898,6.24672 0.42516,0 4.00208,-0.9711 7.94872,-2.15803 12.3417,-3.71163 21.33309,-5.24758 31.09975,-5.31259 10.80954,-0.072 15.37971,0.61164 15.37971,2.30045 0,0.65784 -2.52146,3.8552 -5.60327,7.10526 -3.08175,3.25007 -5.41592,6.10575 -5.18693,6.34598 0.41587,0.43627 32.15385,1.68264 44.11291,1.73236 4.66148,0.0193 6.32276,0.26694 6.32276,0.94225 0,0.50378 -2.3293,4.77962 -5.17619,9.50186 -2.84689,4.72223 -6.50958,11.49023 -8.13929,15.03998 -3.16418,6.89208 -6.06145,15.4077 -5.45767,16.04116 0.53337,0.55958 4.42409,0.52193 13.13393,-0.12708 l 7.68986,-0.57302 -0.009,1.65205 c -0.0157,2.83732 -5.33478,11.88487 -10.11212,17.1997 -2.51626,2.79937 -7.03578,7.1128 -10.04337,9.58539 -7.58527,6.23599 -9.84369,8.79787 -8.53225,9.67871 3.59045,2.41163 10.88911,2.71694 16.393,0.68576 4.36387,-1.61047 6.15188,-1.77891 6.15188,-0.57955 0,0.47008 -1.26948,3.13239 -2.82112,5.91625 -2.17168,3.89653 -5.89522,8.21851 -16.17693,18.77706 -13.2232,13.57917 -13.33954,13.7253 -11.70423,14.70098 1.13106,0.67484 4.0759,0.98551 9.34177,0.98551 6.14751,0 7.69,0.20202 7.68986,1.00719 -3.4e-4,1.762 -14.49145,15.3373 -28.36722,26.57446 -7.75343,6.27901 -9.4141,7.90578 -8.08858,7.92345 2.57259,0.0343 18.43495,3.03042 18.95991,3.5812 2.24592,2.35622 -14.61195,14.80775 -37.35513,27.59112 -6.9651,3.91492 -8.55892,5.08973 -7.94967,5.85981 1.33059,1.68207 7.48938,3.11908 13.3677,3.11908 6.63727,0 7.17426,0.73933 3.12277,4.29915 -4.37044,3.84006 -15.61157,9.07689 -30.93031,14.40936 -8.08289,2.81367 -14.7944,5.20985 -14.91442,5.32485 -0.12003,0.11501 0.18756,0.89888 0.68354,1.74194 1.06701,1.81359 6.67856,4.78901 10.30051,5.46164 4.97967,0.92476 2.29732,3.51019 -6.94363,6.69288 -6.37807,2.19668 -14.41339,3.47278 -29.52044,4.68826 -7.36695,0.59273 -14.22329,1.40828 -15.2363,1.81235 -1.56873,0.62571 -1.73441,0.94528 -1.11738,2.15483 1.07213,2.10177 5.30361,6.23174 8.67251,8.46457 3.10608,2.0586 3.68833,3.30819 1.88056,4.03597 -1.51896,0.61153 -23.23825,0.35915 -31.0453,-0.36074 z m 27.6493,-1.92905 c -0.35715,-0.31554 -2.13368,-1.80932 -3.94787,-3.31951 -3.65087,-3.03905 -6.69776,-8.4956 -5.46574,-9.78819 1.21035,-1.26976 5.46205,-2.00488 16.28322,-2.81539 17.64537,-1.32164 28.43722,-3.27374 35.46643,-6.41539 l 2.81196,-1.2568 -4.10126,-1.25427 c -3.01593,-0.92233 -4.78945,-2.01313 -6.70159,-4.12181 -1.43024,-1.57716 -2.50354,-3.39507 -2.38522,-4.03981 0.15393,-0.83842 4.88521,-2.81968 16.61302,-6.95683 15.59209,-5.50032 24.76523,-9.6624 29.45208,-13.36313 l 2.11769,-1.67207 -5.57478,-0.0228 c -4.78732,-0.0196 -6.14846,-0.32346 -9.63658,-2.15136 -2.73397,-1.43267 -4.06188,-2.55616 -4.06188,-3.43657 0,-0.95911 3.37294,-3.23003 12.64553,-8.51392 6.95506,-3.96325 15.2601,-8.97901 18.45566,-11.14612 6.85744,-4.65044 15.55586,-11.8508 14.64921,-12.12627 -0.35011,-0.10639 -4.02012,-0.70066 -8.15555,-1.32061 -8.81477,-1.32142 -11.962,-2.26519 -11.962,-3.58703 0,-0.52745 1.61487,-2.18079 3.5886,-3.67409 6.85128,-5.18363 22.75725,-18.7823 28.11438,-24.03618 l 5.38659,-5.28279 -5.04481,0.17433 c -6.20712,0.21446 -11.77252,-1.53592 -12.08128,-3.79967 -0.14943,-1.09591 3.09932,-4.86672 12.66557,-14.70099 11.18447,-11.49789 18.82667,-20.79649 17.89507,-21.77386 -0.15707,-0.16477 -1.97694,0.17944 -4.04411,0.76491 -4.42806,1.2541 -10.76163,0.88753 -14.93514,-0.86441 -5.19977,-2.18274 -3.76945,-4.83438 7.84079,-14.53617 8.48072,-7.08665 13.10098,-12.43085 16.34337,-18.90427 l 2.47592,-4.94313 -8.84538,0.48991 c -9.56269,0.52963 -12.44827,0.16484 -12.44827,-1.57365 0,-4.48094 6.85423,-20.21365 14.03491,-32.21469 2.43144,-4.06357 4.42075,-7.53747 4.42075,-7.71977 0,-0.1823 -10.38131,-0.50533 -23.06957,-0.71783 -23.06909,-0.38637 -27.00287,-0.78017 -27.36269,-2.7392 -0.10554,-0.57457 2.43451,-3.77841 5.64449,-7.11964 l 5.83636,-6.07496 -2.56854,-0.49652 c -4.50004,-0.86988 -16.02246,-0.6097 -22.73307,0.51332 -3.57151,0.5977 -11.16963,2.41176 -16.88473,4.03127 -5.7151,1.6195 -10.88125,2.74723 -11.48023,2.50608 -0.599,-0.24116 -1.56149,-1.62462 -2.13888,-3.07439 -1.63948,-4.11662 -0.77165,-6.79263 3.90303,-12.03543 2.42849,-2.7236 3.59653,-4.48254 2.87218,-4.32538 -0.67138,0.14568 -5.2194,1.10459 -10.10673,2.13092 -4.88733,1.02634 -13.19237,3.18673 -18.45566,4.80088 -12.43849,3.81466 -13.32791,3.95763 -14.46573,2.32512 -1.34433,-1.92879 -1.11343,-5.90772 0.50199,-8.64993 0.77882,-1.322 3.12885,-4.00529 5.22233,-5.96286 l 3.80638,-3.55923 -7.78562,2.43071 c -12.37397,3.86319 -22.62076,8.56051 -34.49957,15.81522 -2.5682,1.56849 -3.9454,1.09658 -5.78844,-1.98339 -2.2846,-3.81781 -1.57768,-8.90395 1.97127,-14.18356 l 2.8447,-4.23191 -2.56185,1.12086 c -8.94696,3.91457 -18.11204,10.09244 -29.0317,19.56928 -3.65593,3.17288 -6.90501,5.76886 -7.22019,5.76886 -0.91472,0 -3.9843,-3.72372 -5.26916,-6.39211 -1.19524,-2.48219 -1.18635,-8.08066 0.0178,-11.09743 0.36775,-0.92149 -1.14281,-0.16265 -4.72636,2.3743 -7.43318,5.26228 -13.93265,11.30401 -19.33879,17.97692 -5.23764,6.46494 -6.42243,6.90725 -9.49167,3.54355 -1.93122,-2.11628 -2.00784,-2.45838 -2.00784,-8.96434 0,-3.72025 -0.18202,-6.76395 -0.40452,-6.76377 -0.84332,6.4e-4 -21.03613,22.20668 -26.58103,29.23118 -3.3091,4.19215 -6.30834,7.34232 -6.99052,7.34232 -1.62929,0 -3.12803,-2.60697 -4.93381,-8.5824 -0.8359,-2.766 -1.68992,-5.20753 -1.89779,-5.42561 -0.59611,-0.62539 -9.67753,10.01227 -15.93803,18.6693 -22.50018,31.11321 -33.64806,65.43073 -29.44442,90.64147 3.27281,19.62828 14.0617,34.26415 33.63475,45.62774 l 3.49508,2.02916 5.0492,-4.31942 c 39.16343,-33.50284 93.90527,-66.47715 153.7197,-92.59451 16.18055,-7.06506 52.87858,-21.69654 54.19379,-21.60699 0.5536,0.0378 0.52011,0.1865 -0.10041,0.44538 -0.70139,0.29263 -0.72893,0.52024 -0.11149,0.92058 0.50179,0.32538 -1.92274,2.00569 -6.24546,4.32846 -81.28689,43.67846 -144.55083,88.06428 -180.1566,126.39746 l -7.67365,8.26146 1.06769,3.83781 c 1.62608,5.84551 6.60548,16.47459 10.45369,22.31466 3.60821,5.47588 11.67341,14.2542 17.49678,19.04397 16.72652,13.75757 44.05355,23.59295 73.82259,26.5697 7.99642,0.79961 30.88334,0.97885 30.04166,0.23527 z M 597.39228,-210.5851 c -4.20611,-14.99896 -13.76121,-36.25989 -22.60605,-50.30065 -10.92513,-17.34306 -22.51651,-29.79021 -36.40999,-39.09805 -3.8815,-2.60038 -3.92874,-2.61113 -11.47299,-2.61113 l -7.57543,0 -7.89656,-7.88 c -12.06413,-12.03874 -19.70825,-15.22553 -32.78264,-13.66693 l -5.908,0.70428 -8.29664,-4.58798 c -11.8274,-6.54047 -16.87298,-7.16781 -28.98159,-3.6034 -4.71521,1.38801 -5.52364,1.19746 -17.98982,-4.24045 -3.22557,-1.40706 -7.53188,-2.8485 -9.5696,-3.20322 l -3.70487,-0.64495 4.61508,-0.0838 c 4.06585,-0.0738 5.6464,0.3525 13.28267,3.58287 l 8.66773,3.6667 5.88947,-1.51533 c 6.90174,-1.77578 14.7449,-1.96097 19.54112,-0.46142 1.85405,0.57966 6.13924,2.73671 9.52278,4.79348 l 6.15188,3.73956 8.88605,-0.16088 c 14.93589,-0.27041 19.81577,1.85164 31.50757,13.70109 l 7.60645,7.70906 7.71973,0 7.71973,0 6.66693,4.65638 c 7.53545,5.26302 19.1031,16.49916 25.38042,24.65309 12.19071,15.83511 25.07166,41.263 31.01582,61.22712 0.67521,2.26789 1.40222,4.11956 1.61556,4.11481 0.21326,-0.005 1.77194,-4.11591 3.4637,-9.13593 3.57302,-10.60226 11.8566,-28.55479 17.45325,-37.82538 11.29212,-18.70503 25.17699,-34.2864 39.90159,-44.77687 l 4.08903,-2.91322 7.85239,0 7.85234,0 5.34333,-6.15293 c 10.53755,-12.13413 17.55822,-16.07784 28.62214,-16.07784 3.13746,0 7.22587,0.34232 9.08545,0.76071 3.37493,0.75935 3.39701,0.75207 12.36706,-4.07436 8.62925,-4.64305 9.21745,-4.84781 14.81026,-5.15577 4.48254,-0.24683 7.28089,0.0474 12.14819,1.27744 l 6.324,1.59815 8.42296,-3.65719 c 6.04607,-2.62517 9.31245,-3.65194 11.57525,-3.63865 l 3.15229,0.0185 -4.44302,1.65949 c -2.44367,0.91271 -7.65801,3.04565 -11.58749,4.73986 l 25.19693,11.16573 -38.18424,-9.58326 c -12.35505,-3.1008 -14.86944,-2.80118 -27.37446,3.91833 l -8.54428,4.59124 -6.15189,-1.1774 c -4.87222,-0.93249 -7.1018,-1.0263 -10.7188,-0.45098 -7.83381,1.24603 -11.24305,3.4194 -21.00321,13.3895 l -8.81128,9.00077 -7.75855,0.0264 -7.75862,0.0264 -4.55232,3.37989 c -18.99908,14.10583 -34.73457,34.27113 -47.09124,60.3483 -4.41193,9.31089 -10.93218,26.50825 -11.91135,31.41682 -0.30664,1.53717 -0.86523,2.33064 -1.64078,2.33064 -0.87616,0 -1.57023,-1.40652 -2.72344,-5.51864 z"
       style="fill:none;stroke:#c5089d;stroke-width:15.70353603000000042;stroke-miterlimit:4;stroke-opacity:1;stroke-dasharray:none"
       sodipodi:nodetypes="cscsssssscsscsssccssscssssssscccscsssccssccsscssssscsscscssscssccssssssssssccsscssssssscssssssssccssssscsssssssssscscccsssssssssscsscscssscsccsssscsscsscsssscscsscsccsscssccsccsscssscssscsscscscccsscscscccscssscsccsscssscscsscsssscsssccccscssssssccsssssssssscsssssssssssccsscsscsssssccsssssssssssssssssssssssssssssssscsssscsssssscccsssssscscccssssssscccssssssssccccsscsssssccccsssssssssssssscccsssssscsscccssssssscsssssssssssssssssssssssscsssssssssssscssssssssssssssssssscssssssscsscsccsssssscsscsscsssscsssssscccsssscscscssscsssscssscssssscsssscccsscsscsscsssssssscsssssscssccssssccsssssscssssssscsccsscsssssssssscssssscsccsscscssccsscssscscsscscsscscsscsscsscscsssscssssscssssscsssccccsscssssssssscssssscssscsssssccsssssccsscsscssscsscscsssscsssccscscscsscsccsccssssscsssscscscsssscssssscscsssssscssscscsssscsssccsscscssssssscsscccssccsssccssscsscsssscsscssscsscccssccssscccsssssscsscsscsscssscccssssc" />
  </g>
  <text
     xml:space="preserve"
     style="font-size:60.74609756000000260px;font-style:normal;font-variant:normal;font-weight:normal;font-stretch:normal;text-align:start;line-height:125%;letter-spacing:0px;word-spacing:0px;writing-mode:lr-tb;text-anchor:start;fill:none;stroke:#c5089d;stroke-width:3.12317156999999979;stroke-miterlimit:4;stroke-opacity:1;stroke-dasharray:none;font-family:Sans;-inkscape-font-specification:Sans"
     x="122.01722"
     y="130.44084"
     id="text3785"
     sodipodi:linespacing="125%"><tspan
       sodipodi:role="line"
       id="tspan3787"
       x="122.01722"
       y="130.44084"
       style="stroke-width:3.12317156999999979;stroke:#c5089d;stroke-opacity:1">Our Name Here</tspan></text>
</svg>
